<?xml version="1.0" encoding="UTF-8"?>
<svg width="150" height="58" version="1.1" viewBox="0 0 150 58" xmlns="http://www.w3.org/2000/svg">
 <defs>
  <linearGradient id="linearGradient38222-3" x1="70.486" x2="347.99" y1="-127.48" y2="112.95" gradientTransform="matrix(.046467 0 0 .046945 12.777 25.089)" gradientUnits="userSpaceOnUse">
   <stop stop-color="#00c967" offset="0"/>
   <stop stop-color="#00e396" offset="1"/>
  </linearGradient>
 </defs>
 <g transform="matrix(1.1452 0 0 1.1494 -3.216 11.966)" fill="#fff" stroke-width=".28116">
  <path d="m45.791 25.178c4.1028 0 7.0179-2.1594 7.0179-5.8033 0-3.9948-3.212-4.9935-6.0732-5.8572-2.9421-0.89073-3.401-1.4846-3.401-2.3483 0-0.75577 0.6748-1.4306 2.0244-1.4306 1.7275 0 2.6182 0.83675 3.266 2.1864l3.6439-2.1324c-1.3766-2.7802-3.8059-4.2647-6.9099-4.2647-3.266 0-6.3431 2.1054-6.3431 5.7493 0 3.6169 2.7532 4.9665 5.5603 5.7493 2.8341 0.78276 3.9138 1.2416 3.9138 2.4023 0 0.72878-0.51285 1.5385-2.5642 1.5385-2.1324 0-3.293-1.0527-3.9678-2.6182l-3.7249 2.1594c1.0527 2.7802 3.5899 4.6696 7.5577 4.6696z"/>
  <path d="m65.92 5.9057h-7.1529v18.894h4.3187v-5.9382h2.8341c3.7249 0 6.613-2.8881 6.613-6.4781s-2.8881-6.4781-6.613-6.4781zm0 8.9073h-2.8341v-4.8585h2.8341c1.3226 0 2.2943 1.0527 2.2943 2.4293s-0.9717 2.4293-2.2943 2.4293z"/>
  <path d="m90.502 24.8h4.7236l-6.4241-18.894h-5.5064l-6.4241 18.894h4.7236l0.94472-2.9691h7.0179zm-6.667-7.0179 2.2133-6.9369 2.2133 6.9369z"/>
  <path d="m110.58 24.8h4.6426l-4.0218-6.9369c2.0784-1.0527 3.482-3.1581 3.482-5.4794 0-3.5899-2.8881-6.4781-6.478-6.4781h-7.5577v18.894h4.3187v-6.2081h2.0514zm-5.6143-14.846h3.239c1.1876 0 2.1594 1.0527 2.1594 2.4293s-0.97171 2.4293-2.1594 2.4293h-3.239z"/>
  <path d="m125.36 20.643v-3.347h6.748v-4.1028h-6.748v-3.1311h7.4228v-4.1568h-11.741v18.894h11.876v-4.1568z"/>
 </g>
 <path d="m11.451 41.561 10.479-10.5-0.8955-0.89654-10.458 10.53-8.6631-8.732c-1.4158-1.6789-1.152-3.5545 0.55083-5.0696l13.837-13.893 5.0053 5.0214-9.0956 9.1301 0.87366 0.88086 9.0975-9.1355 8.57 8.6186c0.93263 0.89018 1.3481 3.0822-0.07008 4.4463l-14.354 14.491zm7.3301-11.045 1.4013-1.4205-1.565-1.586c-1.1975-1.2137-1.2148-1.2617-1.3812-1.2539-0.16641 8e-3 -0.32862 0.14991-1.4248 1.2761-0.40068 0.41172-0.89458 0.90224-1.5578 1.5675l1.4114 1.4331c0.58608 0.59512 1.3209 1.4082 1.5421 1.4082 0.22114 0 0.39919-0.23622 1.5741-1.4245z" fill="url(#linearGradient38222-3)" stroke-width=".072918"/>
</svg>
