<?xml version="1.0" encoding="UTF-8"?>
<svg width="1024" height="1024" version="1.1" viewBox="0 0 1024 1024" xmlns="http://www.w3.org/2000/svg">
 <defs>
  <linearGradient id="linearGradient38222" x1="70.486" x2="347.99" y1="-127.48" y2="112.95" gradientTransform="matrix(1.0066 0 0 1.0076 435.47 410.64)" gradientUnits="userSpaceOnUse">
   <stop stop-color="#00c967" offset="0"/>
   <stop stop-color="#00e396" offset="1"/>
  </linearGradient>
 </defs>
 <circle cx="512" cy="512" r="512" fill="#1a1a1a" stroke-width=".98181"/>
 <path d="m406.75 764.24 227.04-225.39-19.401-19.245-226.57 226.03-187.68-187.44c-30.675-36.036-24.959-76.298 11.934-108.82l299.78-298.22 108.44 107.78-197.06 195.98 18.928 18.908 197.1-196.09 185.67 185c20.206 19.108 29.209 66.159-1.5189 95.444l-310.98 311.06zm158.81-237.08 30.358-30.491-33.906-34.043c-25.946-26.05-26.321-27.083-29.926-26.915-3.6048 0.16869-7.1198 3.2177-30.867 27.391-8.6811 8.8372-19.382 19.367-33.75 33.647l30.576 30.761c12.697 12.774 28.619 30.227 33.41 30.227 4.7918 0 8.6485-5.0702 34.104-30.577z" fill="url(#linearGradient38222)" stroke-width="1.5724"/>
</svg>
