<?xml version="1.0" encoding="UTF-8" standalone="no"?>
<svg
   xmlns:dc="http://purl.org/dc/elements/1.1/"
   xmlns:cc="http://creativecommons.org/ns#"
   xmlns:rdf="http://www.w3.org/1999/02/22-rdf-syntax-ns#"
   xmlns:svg="http://www.w3.org/2000/svg"
   xmlns="http://www.w3.org/2000/svg"
   xmlns:sodipodi="http://sodipodi.sourceforge.net/DTD/sodipodi-0.dtd"
   xmlns:inkscape="http://www.inkscape.org/namespaces/inkscape"
   version="1.0"
   width="1024px"
   height="1024px"
   viewBox="0 0 1024 1024"
   preserveAspectRatio="xMidYMid meet"
   id="svg10"
   sodipodi:docname="flaxlight_circle.svg"
   inkscape:version="0.92.5 (2060ec1f9f, 2020-04-08)"
   inkscape:export-xdpi="36.169998"
   inkscape:export-ydpi="36.169998">
  <metadata
     id="metadata16">
    <rdf:RDF>
      <cc:Work
         rdf:about="">
        <dc:format>image/svg+xml</dc:format>
        <dc:type
           rdf:resource="http://purl.org/dc/dcmitype/StillImage" />
      </cc:Work>
    </rdf:RDF>
  </metadata>
  <defs
     id="defs14">
    <filter
       inkscape:collect="always"
       style="color-interpolation-filters:sRGB"
       id="filter1573"
       x="-0.073200002"
       width="1.1464"
       y="-0.073200002"
       height="1.1464">
      <feGaussianBlur
         inkscape:collect="always"
         stdDeviation="0.379055"
         id="feGaussianBlur1575" />
    </filter>
  </defs>
  <sodipodi:namedview
     pagecolor="#ffffff"
     bordercolor="#666666"
     borderopacity="1"
     objecttolerance="10"
     gridtolerance="10"
     guidetolerance="10"
     inkscape:pageopacity="0"
     inkscape:pageshadow="2"
     id="namedview12"
     showgrid="false"
     inkscape:zoom="0.46777344"
     inkscape:cx="9.1501695"
     inkscape:cy="845.70265"
     inkscape:window-width="1848"
     inkscape:window-height="1136"
     inkscape:window-x="72"
     inkscape:window-y="27"
     inkscape:window-maximized="1"
     inkscape:current-layer="svg10" />
  <g
     id="g1584"
     transform="matrix(75.333122,0,0,75.333122,-3762.7624,-7750.8486)">
    <circle
       style="opacity:0.3;fill:#000000;fill-opacity:1;stroke:none;stroke-width:0.75;stroke-miterlimit:4;stroke-dasharray:none;stroke-opacity:1;filter:url(#filter1573)"
       id="path940-2"
       cx="56.93552"
       cy="109.78479"
       r="6.2140164"
       transform="matrix(0.94947044,0,0,0.94947044,2.7027709,5.4400389)" />
    <circle
       style="opacity:0.981;fill:#ffffff;fill-opacity:1;stroke:none;stroke-width:0.75;stroke-miterlimit:4;stroke-dasharray:none;stroke-opacity:1"
       id="path940"
       cx="56.794773"
       cy="109.64406"
       r="6.2140164"
       transform="matrix(0.94947044,0,0,0.94947044,2.7027709,5.4400389)" />
    <g
       transform="matrix(0.87124005,0,0,0.87124005,1.4821454,3.0862216)"
       id="g1171">
      <path
         inkscape:connector-curvature="0"
         style="opacity:0.66600001;fill:#004e80;fill-opacity:1;stroke:none;stroke-width:3.07766175;stroke-miterlimit:4;stroke-dasharray:none;stroke-opacity:1"
         d="m 65.976825,117.33957 c -0.285271,-0.007 -0.529616,0.002 -0.745691,0.0315 -0.08274,0.0495 -0.709869,0.6754 -1.514118,1.57355 0.191246,0.16495 0.380484,0.33703 0.565857,0.51676 0.316505,0.30687 0.619278,0.63925 0.907439,0.98754 0.687488,-0.95733 1.31581,-1.97982 1.778701,-3.04322 -0.380797,-0.0361 -0.706914,-0.0592 -0.992188,-0.0662 z m -4.576463,4.44882 c -0.728213,1.00451 -1.359019,2.02848 -1.6676,2.8913 0.637418,0.1529 1.467376,0.11064 1.885675,0.0346 0.375475,-0.42502 0.807529,-0.90229 1.257286,-1.4118 -0.460139,-0.39929 -0.892093,-0.82722 -1.281575,-1.27692 -0.06748,-0.0779 -0.128577,-0.15831 -0.193786,-0.2372 z"
         id="rect4591-6-3-2" />
      <path
         inkscape:connector-curvature="0"
         style="fill:#004e80;fill-opacity:1;stroke:none;stroke-width:0.10508906px;stroke-linecap:butt;stroke-linejoin:miter;stroke-opacity:1"
         d="m 59.716744,117.23622 c 0.297989,2.65215 3.337369,6.61421 6.977867,7.66723 -2.021719,-2.13892 -4.280239,-4.53004 -5.650299,-5.9278 1.848773,1.21309 3.909356,3.2146 5.51284,5.00641 -1.009746,-3.5217 -4.611664,-6.16441 -6.840408,-6.74584 z"
         id="path4537-6-4-5" />
    </g>
  </g>
  <text
     xml:space="preserve"
     style="font-style:normal;font-weight:normal;font-size:169.13014221px;line-height:1.25;font-family:sans-serif;letter-spacing:0px;word-spacing:0px;fill:#ffffff;fill-opacity:1;stroke:#ffffff;stroke-width:20;stroke-opacity:1;stroke-miterlimit:4;stroke-dasharray:none"
     x="226.81718"
     y="826.89343"
     id="text155-5"><tspan
       sodipodi:role="line"
       id="tspan153-9"
       x="226.81718"
       y="826.89343"
       style="font-style:normal;font-variant:normal;font-weight:bold;font-stretch:normal;font-family:'DejaVu Sans';-inkscape-font-specification:'DejaVu Sans Bold';fill:#ffffff;fill-opacity:1;stroke-width:20;stroke:#ffffff;stroke-opacity:1;stroke-miterlimit:4;stroke-dasharray:none">LIGHT</tspan></text>
  <g
     aria-label="LIGHT"
     style="font-style:normal;font-weight:normal;font-size:161.13569641px;line-height:1.25;font-family:sans-serif;letter-spacing:0px;word-spacing:0px;fill:#004e80;fill-opacity:1;stroke:none;stroke-width:4.02839231"
     id="text155"
     transform="translate(-2.137787)">
    <path
       d="m 258.13003,715.5381 h 30.29162 v 94.57281 h 53.18737 v 22.89574 h -83.47899 z"
       style="font-style:normal;font-variant:normal;font-weight:bold;font-stretch:normal;font-family:'DejaVu Sans';-inkscape-font-specification:'DejaVu Sans Bold';fill:#004e80;fill-opacity:1;stroke-width:4.02839231"
       id="path5368"
       inkscape:connector-curvature="0" />
    <path
       d="m 360.80682,715.5381 h 30.29162 v 117.46855 h -30.29162 z"
       style="font-style:normal;font-variant:normal;font-weight:bold;font-stretch:normal;font-family:'DejaVu Sans';-inkscape-font-specification:'DejaVu Sans Bold';fill:#004e80;fill-opacity:1;stroke-width:4.02839231"
       id="path5370"
       inkscape:connector-curvature="0" />
    <path
       d="m 526.34857,824.27322 q -11.32986,5.50757 -23.52519,8.26136 -12.19532,2.75378 -25.17745,2.75378 -29.34747,0 -46.49961,-16.36534 -17.15213,-16.44403 -17.15213,-44.53262 0,-28.40332 17.46685,-44.68998 17.46686,-16.28667 47.83716,-16.28667 11.72325,0 22.42367,2.20303 10.7791,2.20303 20.29932,6.5304 v 24.31198 q -9.83494,-5.58625 -19.5912,-8.34003 -9.67759,-2.75379 -19.43385,-2.75379 -18.09629,0 -27.93124,10.14967 -9.75626,10.07098 -9.75626,28.87539 0,18.64705 9.44155,28.79671 9.44154,10.14966 26.82972,10.14966 4.72077,0 8.73343,-0.55076 4.09133,-0.62944 7.3172,-1.88831 v -22.81706 h -18.4897 v -20.29933 h 47.20773 z"
       style="font-style:normal;font-variant:normal;font-weight:bold;font-stretch:normal;font-family:'DejaVu Sans';-inkscape-font-specification:'DejaVu Sans Bold';fill:#004e80;fill-opacity:1;stroke-width:4.02839231"
       id="path5372"
       inkscape:connector-curvature="0" />
    <path
       d="m 553.02093,715.5381 h 30.29162 v 44.76866 h 44.68998 V 715.5381 h 30.29162 V 833.00665 H 628.00253 V 783.2025 h -44.68998 v 49.80415 h -30.29162 z"
       style="font-style:normal;font-variant:normal;font-weight:bold;font-stretch:normal;font-family:'DejaVu Sans';-inkscape-font-specification:'DejaVu Sans Bold';fill:#004e80;fill-opacity:1;stroke-width:4.02839231"
       id="path5374"
       inkscape:connector-curvature="0" />
    <path
       d="m 673.87272,715.5381 h 108.26304 v 22.89575 h -38.94637 v 94.5728 h -30.29162 v -94.5728 h -39.02505 z"
       style="font-style:normal;font-variant:normal;font-weight:bold;font-stretch:normal;font-family:'DejaVu Sans';-inkscape-font-specification:'DejaVu Sans Bold';fill:#004e80;fill-opacity:1;stroke-width:4.02839231"
       id="path5376"
       inkscape:connector-curvature="0" />
  </g>
</svg>
